<?xml version="1.0" standalone="no"?>
<!DOCTYPE svg PUBLIC "-//W3C//DTD SVG 20010904//EN"
 "http://www.w3.org/TR/2001/REC-SVG-20010904/DTD/svg10.dtd">
<svg version="1.0" xmlns="http://www.w3.org/2000/svg"
 width="180.000000pt" height="180.000000pt" viewBox="0 0 180.000000 180.000000"
 preserveAspectRatio="xMidYMid meet">

<g transform="translate(0.000000,180.000000) scale(0.100000,-0.100000)"
fill="#000000" stroke="none">
<path d="M226 1783 c5 -10 9 -46 9 -80 0 -59 -2 -65 -37 -99 -29 -30 -45 -38
-86 -42 -34 -3 -60 1 -81 11 l-31 15 0 -794 0 -794 900 0 900 0 0 900 0 900
-317 0 -318 0 53 -35 c127 -86 232 -300 221 -449 -2 -25 0 -42 5 -38 5 3 6 -9
3 -28 -4 -18 -7 -44 -7 -59 0 -14 -4 -21 -8 -16 -4 6 -36 12 -72 14 -59 2 -67
6 -89 33 -49 62 -152 85 -220 50 -42 -21 -56 -49 -20 -38 57 17 118 18 167 2
96 -32 85 -42 -50 -50 -68 -4 -156 -14 -196 -23 -59 -12 -82 -12 -125 -3 -28
7 -115 17 -192 24 l-140 12 45 22 c49 23 148 30 194 12 22 -8 26 -7 26 9 0 27
-19 39 -76 46 -72 10 -131 -9 -176 -56 -34 -36 -41 -39 -107 -44 l-71 -5 -2
43 c-9 248 84 452 258 564 15 9 -21 12 -175 12 -181 1 -193 0 -185 -16z m61
-635 c12 -13 24 -43 27 -68 l7 -45 -21 37 c-11 20 -25 40 -31 44 -15 9 -29
-14 -28 -46 1 -25 1 -25 11 3 9 26 11 26 23 11 7 -11 10 -34 7 -61 -5 -45 13
-63 21 -20 2 12 5 -8 6 -44 1 -46 6 -70 16 -79 17 -14 21 -45 5 -35 -5 3 -10
1 -10 -4 0 -6 11 -11 25 -11 21 0 25 -5 25 -30 0 -25 -4 -30 -22 -30 -13 0
-30 6 -38 13 -24 19 -89 131 -96 166 -6 28 10 175 23 207 8 20 27 17 50 -8z
m1246 8 c13 -32 29 -179 23 -207 -7 -35 -72 -147 -96 -166 -8 -7 -25 -13 -37
-13 -19 0 -23 5 -23 34 0 30 2 33 25 28 15 -2 25 0 25 7 0 7 -4 9 -10 6 -16
-10 -12 21 5 35 10 9 15 33 16 79 1 36 4 56 6 44 8 -43 26 -25 21 20 -3 28 0
50 8 62 13 18 14 18 14 -2 0 -12 5 -25 10 -28 12 -8 13 35 1 54 -13 20 -30 4
-57 -53 -26 -56 -30 -50 -13 22 17 69 67 117 82 78z m-748 -14 c17 -5 32 -17
34 -27 5 -29 -49 -132 -76 -144 -13 -6 -76 -11 -139 -11 -123 0 -159 10 -188
52 -17 23 -23 128 -8 142 9 10 337 0 377 -12z m573 -44 c3 -67 -7 -92 -51
-118 -27 -17 -51 -20 -149 -20 -64 0 -128 5 -141 11 -13 6 -35 34 -50 65 -28
57 -34 89 -17 99 21 13 140 22 270 21 l135 -1 3 -57z m-991 -15 c6 -63 33
-106 83 -131 41 -21 56 -23 172 -20 145 3 149 5 197 95 24 43 30 48 61 48 31
0 37 -5 61 -48 48 -89 53 -92 191 -95 176 -5 239 25 255 120 4 27 9 35 14 26
5 -7 9 -8 9 -2 0 5 -5 15 -12 22 -9 9 -8 16 5 29 9 9 19 14 22 11 4 -3 -8 -70
-25 -149 -24 -112 -33 -180 -38 -311 -7 -149 -10 -170 -27 -187 -11 -10 -71
-51 -133 -90 l-113 -71 -210 0 -210 0 -63 47 c-35 27 -84 60 -109 75 -69 40
-78 60 -82 180 -3 94 -22 226 -60 405 -8 37 -15 77 -15 88 0 35 23 -1 27 -42z
m1059 -202 c-15 -14 -16 -14 -16 1 0 9 6 40 13 70 l12 53 3 -54 c2 -39 -1 -59
-12 -70z m-1078 41 c8 -44 7 -50 -4 -41 -8 7 -14 31 -14 57 0 57 6 52 18 -16z"/>
<path d="M597 1083 c18 -2 50 -2 70 0 21 2 7 4 -32 4 -38 0 -55 -2 -38 -4z"/>
<path d="M737 897 c-15 -11 -21 -28 -18 -54 2 -24 33 -43 71 -43 21 0 42 -4
45 -10 3 -5 28 -10 55 -10 27 0 52 5 55 10 3 6 25 10 48 10 36 0 45 4 60 29
18 32 15 56 -10 65 -13 5 -14 4 -3 -9 7 -9 10 -25 6 -41 -6 -23 -10 -25 -45
-19 -28 5 -41 2 -51 -9 -17 -21 -93 -21 -125 0 -16 10 -34 14 -54 9 -27 -6
-31 -3 -37 21 -5 20 -2 31 11 40 10 8 16 16 14 19 -3 3 -13 -1 -22 -8z"/>
<path d="M770 661 c-16 -4 17 -11 98 -20 138 -15 170 -11 60 8 -111 18 -131
20 -158 12z"/>
<path d="M810 602 c25 -16 107 -25 114 -13 5 7 -5 11 -27 11 -19 0 -50 3 -68
6 -24 4 -30 2 -19 -4z"/>
</g>
</svg>
